<svg   id="chart"   width="1000"   height="500"   viewBox="0 0 1000 500"   xmlns="http://www.w3.org/2000/svg" >      <path d="M 0,495.41254337745397 C 15.4,489.0731969565822 46.199999999999996,474.07692906884756 77,463.71581127309514 C 107.80000000000001,453.3546934773427 123.2,456.21075406673134 154,443.60695439869187 C 184.8,431.0031547306524 200.20000000000002,412.7565693545778 231,400.6968129328977 C 261.8,388.6370565112177 277.2,391.20390063268394 308,383.3081722902916 C 338.8,375.4124439478993 354.2,373.4844384212349 385,361.21817122093603 C 415.8,348.95190402063713 431.2,328.6514486919191 462,321.9768362887972 C 492.8,315.3022238856753 508.2,335.1656503951793 539,327.8451092053265 C 569.8,320.5245680154737 585.2,318.3962903926463 616,285.37413033953305 C 646.8,252.35197028641983 662.2,179.12925063133343 693,162.7343089397603 C 723.8,146.33936724818716 739.2,195.83111271045175 770,203.3994218816673 C 800.8,210.96773105288287 816.2,230.64428207347066 847,200.5758547958381 C 877.8,170.50742751820553 893.2,90.57084417473459 924,53.05728549350448 C 954.8,15.543726812274365 985.6,21.017906210450896 1001,13.008061389687498,L 1000 500,L 0 500Z" fill="#38e8a41a" />   <path d="M 0,495.41254337745397 C 15.4,489.0731969565822 46.199999999999996,474.07692906884756 77,463.71581127309514 C 107.80000000000001,453.3546934773427 123.2,456.21075406673134 154,443.60695439869187 C 184.8,431.0031547306524 200.20000000000002,412.7565693545778 231,400.6968129328977 C 261.8,388.6370565112177 277.2,391.20390063268394 308,383.3081722902916 C 338.8,375.4124439478993 354.2,373.4844384212349 385,361.21817122093603 C 415.8,348.95190402063713 431.2,328.6514486919191 462,321.9768362887972 C 492.8,315.3022238856753 508.2,335.1656503951793 539,327.8451092053265 C 569.8,320.5245680154737 585.2,318.3962903926463 616,285.37413033953305 C 646.8,252.35197028641983 662.2,179.12925063133343 693,162.7343089397603 C 723.8,146.33936724818716 739.2,195.83111271045175 770,203.3994218816673 C 800.8,210.96773105288287 816.2,230.64428207347066 847,200.5758547958381 C 877.8,170.50742751820553 893.2,90.57084417473459 924,53.05728549350448 C 954.8,15.543726812274365 985.6,21.017906210450896 1001,13.008061389687498" fill="none" stroke="#3552e6" stroke-width="10px" />   <g>      </g> </svg>